<svg width="36" height="36" xmlns="http://www.w3.org/2000/svg">

 <g>
  <title>Layer 1</title>
  <path stroke="#000" id="svg_20" d="m35.74496,11.05296c-0.00529,-3.58246 -2.36977,-6.4851 -5.28833,-6.48997l0,-0.00162l-16.20883,0c-0.66782,-2.63168 -2.65937,-4.55596 -5.03179,-4.56082l-3.80194,0c-2.91989,0.00324 -5.28569,2.9075 -5.29098,6.48997l0,23.01991c0.00529,3.57922 2.37109,6.48185 5.29098,6.48834l25.04388,0c2.91592,-0.00649 5.28304,-2.90913 5.28833,-6.48834l0,-18.45746l-0.00132,0zm-30.33089,-7.80905l3.80194,0c1.38325,-0.00649 2.53507,1.35316 2.62235,3.04379l0.0767,1.52027l18.54289,0c1.4454,0.00324 2.64086,1.46998 2.64351,3.24498l0,0.80313c-0.78155,-0.55976 -1.67682,-0.90373 -2.64483,-0.90535l-25.04388,0c-0.96801,0.00162 -1.8646,0.34721 -2.64483,0.90697l0,-5.36882c0.00397,-1.77501 1.19943,-3.24174 2.64615,-3.24498zm25.04256,29.50987l-25.04256,0c-1.4454,-0.00324 -2.64086,-1.47322 -2.64615,-3.24498l0,-12.06809l0.00132,0c0.00264,-1.77663 1.19811,-3.24336 2.64483,-3.24661l25.04388,0c1.4454,0.00324 2.63293,1.46186 2.64483,3.23038l0,12.08269c-0.00529,1.77663 -1.20075,3.24336 -2.64615,3.24661z" stroke-dasharray="5,5" stroke-width="0" fill="#535F75"/>
  <path d="m3.5,27.75c0,0 0,0 0,0.125c0,0.125 -0.03644,0.29988 0.5,1.75c0.09697,0.26215 0.28661,0.46339 0.375,0.375c0.35355,-0.35355 -0.18063,-1.45499 -0.75,-4.125c-0.55302,-2.59334 -0.625,-3 -0.75,-3.125l0,0l0,0.125" id="svg_26" stroke-dasharray="5,5" stroke-width="0" stroke="#000" fill="none"/>
  <path d="m2.75,23.875c0,0 0,0 0,0c0.125,0.25 0.84688,1.17613 1.875,2.625c1.52597,2.15047 2.125,3.375 2.25,3.75l0.125,0.25l0,-0.125" id="svg_27" stroke-dasharray="5,5" stroke-width="0" stroke="#000" fill="none"/>
  <path transform="rotate(-32.2467 5.6875 28)" d="m5.125,26.375c0,0.125 0.49541,1.303 0.75,2.625c0.02364,0.12274 0.25,0.5 0.375,0.625l0,0" id="svg_28" stroke-dasharray="5,5" stroke-width="0" stroke="#000" fill="none"/>
  <path d="m10.875,16.125c0,0.125 0.06159,0.14123 0,0.25c-0.35911,0.63426 -2.81864,1.2444 -3.25,1.375c-0.11964,0.03622 0.125,0 0.25,0c0.75,0 2.72188,-0.19084 8.875,-1c1.24551,-0.16379 1.38323,-0.10696 1.125,0c-1.46078,0.60508 -4.928,2.12041 -6.25,2.375c-0.12274,0.02364 0,0 0,0c0.75,-0.25 1.25,-0.375 1.125,-0.375l-1.25,0.625l-0.625,0.25l-0.625,0.25" id="svg_29" stroke-dasharray="5,5" stroke-width="0" stroke="#000" fill="none"/>
  <path stroke="#000" d="m33.2477,13.75c0,0.64167 0.23537,2.01859 -3.81221,4.49167c-12.03433,7.35297 -20.3318,10.90833 -26.68548,14.75833c0,0 0,0 1.27074,0c0,0 8.89516,-1.28333 11.43664,-1.925l0,0" id="svg_30" stroke-dasharray="5,5" stroke-width="0" fill="none"/>
  <rect stroke="#000" id="svg_33" height="19" width="30.5" y="14" x="2.625" stroke-dasharray="5,5" stroke-width="0" fill="#535F75"/>
  <rect id="svg_34" height="4.625" width="32.125" y="7.375" x="1.875" stroke-dasharray="5,5" stroke-width="0" stroke="#000" fill="#535F75"/>
  <rect id="svg_35" height="5" width="8.875" y="3.375" x="2.5" stroke-dasharray="5,5" stroke-width="0" stroke="#000" fill="#535F75"/>
  <rect id="svg_36" height="2" width="4.375" y="2.375" x="4.75" stroke-dasharray="5,5" stroke-width="0" stroke="#000" fill="#535F75"/>
  <rect id="svg_37" height="3.875" width="2.75" y="5.125" x="10.625" stroke-dasharray="5,5" stroke-width="0" stroke="#000" fill="#535F75"/>
  <rect stroke="#000" id="svg_38" height="4" width="3.25" y="2.75" x="8.75" stroke-dasharray="5,5" stroke-width="0" fill="#535F75"/>
  <path stroke="#000" id="svg_39" d="m24.22546,23.98853c0.87621,-1.27344 1.39007,-2.76328 1.39098,-4.36091c-0.00091,-4.66017 -4.28247,-8.43464 -9.56711,-8.43625c-5.28555,0.00161 -9.56893,3.77608 -9.56893,8.43545c0,4.65695 4.28338,8.43142 9.56893,8.43142c1.81357,0 3.50392,-0.4529 4.94876,-1.22517l6.50585,5.7333l3.22646,-2.84533l-6.50494,-5.7325zm-8.17613,0.85432c-3.26936,-0.00644 -5.91259,-2.33612 -5.91806,-5.21604c0.00548,-2.88153 2.64962,-5.21122 5.91806,-5.21765c3.26662,0.00644 5.91259,2.33612 5.91806,5.21765c-0.00639,2.87993 -2.65145,5.20961 -5.91806,5.21604zm1.82452,-9.10475l-3.65087,0l0,2.279l-2.58573,0l0,3.2186l2.58573,0l0,2.279l3.65087,0l0,-2.27981l2.58482,0l0,-3.21699l-2.58573,0l0,-2.27981l0.00091,0z" stroke-dasharray="5,5" stroke-width="0" fill="#ffffff"/>
 </g>
</svg>